<?xml version="1.0" standalone="no"?>
<!DOCTYPE svg PUBLIC "-//W3C//DTD SVG 20010904//EN"
 "http://www.w3.org/TR/2001/REC-SVG-20010904/DTD/svg10.dtd">
<svg version="1.0" xmlns="http://www.w3.org/2000/svg"
 width="16.000000pt" height="16.000000pt" viewBox="0 0 16.000000 16.000000"
 preserveAspectRatio="xMidYMid meet">
<metadata>
Created by potrace 1.11, written by Peter Selinger 2001-2013
</metadata>
<g transform="translate(0.000000,16.000000) scale(0.005797,-0.005797)"
fill="#000000" stroke="none">
<path d="M1757 2743 c-215 -36 -420 -177 -538 -367 -82 -134 -119 -275 -114
-438 2 -57 9 -124 15 -150 12 -47 13 -48 54 -49 22 0 66 -2 96 -4 126 -8 340
-14 340 -10 0 2 -11 21 -25 41 -75 110 -72 283 5 398 130 192 400 221 565 59
147 -146 158 -381 23 -524 -91 -96 -189 -121 -413 -105 -22 2 -87 6 -145 10
-58 4 -116 9 -130 11 -81 15 -617 22 -695 10 -350 -54 -626 -301 -701 -626
-13 -54 -16 -219 -5 -285 34 -220 146 -412 316 -538 227 -169 501 -215 749
-125 253 91 440 322 502 619 16 78 26 342 12 355 -7 7 -86 14 -268 21 l-173 6
7 -23 c17 -58 18 -224 2 -286 -69 -271 -289 -381 -519 -260 -176 92 -260 317
-184 489 47 105 179 205 302 227 60 11 345 12 435 1 36 -5 101 -12 145 -15 44
-4 91 -9 105 -11 14 -2 126 -6 250 -9 252 -5 316 3 445 54 211 85 373 257 443
471 31 96 34 114 38 240 4 180 -39 329 -136 473 -177 262 -488 394 -803 340z"/>
</g>
</svg>
