<svg xmlns="http://www.w3.org/2000/svg" viewBox="0 0 634.44 137.41"><defs><style>.cls-1{fill:#fff;}</style></defs><title>cc-white-horizontal</title><g id="Layer_2" data-name="Layer 2"><g id="Layer_1-2" data-name="Layer 1"><path class="cls-1" d="M120.94,66.86A39,39,0,0,1,94.84,79.59h-.09a41.27,41.27,0,0,1-6,0c-23-.16-30-3.09-45.47-2.34l-2.23.13c-.82.05-1.65.12-2.52.19a21.26,21.26,0,0,0-13.06,7c-7.86,8.73-3.77,21,2.29,26.42,5.74,5.17,17.24,8.54,25,0s5.76-20.17,5.66-20.69v.15l-.68-5.31,21.37,1c.2.89,4.39,22.33-10.62,39a36.29,36.29,0,0,1-28.67,12.22,42,42,0,0,1-26.2-10.62A42.12,42.12,0,0,1,.32,101.14a38.2,38.2,0,0,1,9.41-30.7A42.59,42.59,0,0,1,41.21,56.22h.1A338.74,338.74,0,0,1,80.57,57.9l7.53.32h0a18.51,18.51,0,0,0,17.11-5.53c6.87-7.63,5.78-19.87-1.85-26.74A18.57,18.57,0,0,0,76.72,51.71l-24-1.09a39.73,39.73,0,0,1,64.84-40.41C133.81,24.88,135.68,50.5,120.94,66.86Z"/><path class="cls-1" d="M87.76,109.93v-.13c0-13.39,10.3-23.89,24.22-23.89,9.38,0,15.42,3.94,19.49,9.58l-9.58,7.42c-2.63-3.28-5.64-5.38-10-5.38-6.43,0-11,5.45-11,12.14v.13c0,6.89,4.53,12.27,11,12.27,4.79,0,7.62-2.23,10.37-5.58l9.58,6.83c-4.33,6-10.17,10.37-20.34,10.37A23.33,23.33,0,0,1,87.76,109.93Z"/><path class="cls-1" d="M136.43,86.83h12.73v34.79h22.25v11.16h-35Z"/><path class="cls-1" d="M177.9,86.83h12.8v45.94H177.9Z"/><path class="cls-1" d="M199.22,86.83h13.45l11,17.79,11-17.79H248v45.94H235.38V106.39l-11.75,18h-.26l-11.68-17.85v26.25H199.22Z"/><path class="cls-1" d="M256.12,86.83h23.56c5.78,0,9.85,1.44,12.54,4.14a10.07,10.07,0,0,1,3,7.42v.13c0,5.32-3,8.47-7.09,10.24,5.58,1.84,9.13,5,9.13,11.22v.13c0,7.88-6.43,12.67-17.39,12.67H256.12Zm20.41,18.31c3.87,0,6-1.31,6-4V101c0-2.49-2-3.94-5.78-3.94h-8.27v8.07Zm1.84,17.39c3.87,0,6.1-1.51,6.1-4.2v-.13c0-2.49-2-4.13-6.23-4.13h-9.72v8.47Z"/><path class="cls-1" d="M326.78,133.56c-13.13,0-22.84-10.44-22.84-23.63v-.13c0-13,9.71-23.76,23-23.76,8.2,0,13.13,3,17.85,7.35l-2.43,2.49c-4-3.87-8.6-6.76-15.49-6.76-11,0-19.36,9-19.36,20.54v.13c0,11.62,8.47,20.67,19.43,20.67,6.63,0,11.16-2.56,15.82-7.15l2.3,2.23C340.17,130.35,334.92,133.56,326.78,133.56Z"/><path class="cls-1" d="M374.07,133.56c-13.92,0-23-11.09-23-23.63v-.13C351,97.27,360.29,86,374.2,86s23,11.09,23,23.63c.07.07.07.07,0,.13C397.24,122.34,388,133.56,374.07,133.56ZM393.7,109.8c0-11.35-8.27-20.67-19.62-20.67s-19.49,9.19-19.49,20.54v.13c0,11.35,8.27,20.67,19.62,20.67s19.49-9.19,19.49-20.54Z"/><path class="cls-1" d="M443.65,132.77,411.29,91.95v40.82H408V86.83h3.22l31.7,40v-40h3.28v45.94Z"/><path class="cls-1" d="M494.67,132.77,462.31,91.95v40.82H459V86.83h3.22l31.7,40v-40h3.28v45.94Z"/><path class="cls-1" d="M510.05,132.77V86.83h32.68V90H513.46v18h26.32v3.15H513.46v18.44h29.6v3.15Z"/><path class="cls-1" d="M574,133.56c-13.13,0-22.84-10.44-22.84-23.63v-.13c0-13,9.71-23.76,23-23.76,8.2,0,13.13,3,17.85,7.35l-2.43,2.49c-4-3.87-8.6-6.76-15.49-6.76-11,0-19.36,9-19.36,20.54v.13c0,11.62,8.47,20.67,19.43,20.67,6.63,0,11.16-2.56,15.82-7.15l2.3,2.23C587.42,130.35,582.17,133.56,574,133.56Z"/><path class="cls-1" d="M618.42,90v42.79H615V90H599V86.83h35.44V90Z"/></g></g></svg>