<svg xmlns="http://www.w3.org/2000/svg" xmlns:xlink="http://www.w3.org/1999/xlink" viewBox="0 0 130.95 137.41"><defs><style>.cls-1{fill:url(#linear-gradient);}</style><linearGradient id="linear-gradient" y1="68.7" x2="130.95" y2="68.7" gradientUnits="userSpaceOnUse"><stop offset="0.01" stop-color="#82d200"/><stop offset="1" stop-color="#00b1ff"/></linearGradient></defs><title>Asset 19</title><g id="Layer_2" data-name="Layer 2"><g id="Layer_1-2" data-name="Layer 1"><path class="cls-1" d="M120.94,66.86A39,39,0,0,1,94.84,79.59h-.09a41.27,41.27,0,0,1-6,0c-23-.16-30-3.09-45.47-2.34l-2.23.13c-.82.05-1.65.12-2.52.19a21.26,21.26,0,0,0-13.06,7c-7.86,8.73-3.77,21,2.29,26.42,5.74,5.17,17.24,8.54,25,0s5.76-20.17,5.66-20.69v.15l-.68-5.31,21.37,1c.2.89,4.39,22.33-10.62,39a36.29,36.29,0,0,1-28.67,12.22,42,42,0,0,1-26.2-10.62A42.12,42.12,0,0,1,.32,101.14a38.2,38.2,0,0,1,9.41-30.7A42.59,42.59,0,0,1,41.21,56.22h.1A338.74,338.74,0,0,1,80.57,57.9l7.53.32h0a18.51,18.51,0,0,0,17.11-5.53c6.87-7.63,5.78-19.87-1.85-26.74A18.57,18.57,0,0,0,76.72,51.71l-24-1.09a39.73,39.73,0,0,1,64.84-40.41C133.81,24.88,135.68,50.5,120.94,66.86Z"/></g></g></svg>